<svg width="231" height="57" viewBox="0 0 231 57" fill="none" xmlns="http://www.w3.org/2000/svg">
<path d="M1.4833e-07 30.941V39.8568C-0.000208489 40.7156 0.219684 41.5601 0.638689 42.3098C1.0577 43.0594 1.66183 43.6891 2.39344 44.1389L22.0854 56.2422C22.4286 56.4498 22.8207 56.5626 23.2217 56.5693C23.6227 56.576 24.0183 56.4763 24.3682 56.2803C24.7181 56.0843 25.0098 55.799 25.2136 55.4536C25.4173 55.1082 25.5259 54.7149 25.5281 54.3138V44.4962C25.5272 43.8674 25.3612 43.2499 25.0467 42.7055C24.7322 42.161 24.2802 41.7087 23.7359 41.3938L2.92658 29.2622C2.63106 29.0895 2.29524 28.9979 1.95301 28.9966C1.61077 28.9953 1.27424 29.0842 0.977385 29.2545C0.680525 29.4248 0.433843 29.6704 0.262237 29.9665C0.0906316 30.2626 0.000175354 30.5987 1.4833e-07 30.941Z" fill="#F5F5F5"/>
<path d="M9.51706 16.0864V28.3202L28.2335 39.5784C28.6574 39.833 29.0082 40.193 29.2517 40.6233C29.4952 41.0537 29.6232 41.5398 29.6231 42.0342V53.3435L35.0565 50.1504V29.9026C35.0568 29.2793 34.8936 28.6668 34.583 28.1264C34.2725 27.586 33.8256 27.1365 33.287 26.8229L12.1998 14.5437C11.9284 14.3864 11.6205 14.3033 11.3068 14.3027C10.9932 14.3022 10.6849 14.3842 10.413 14.5405C10.1411 14.6969 9.91518 14.9221 9.75791 15.1934C9.60063 15.4648 9.51757 15.7728 9.51706 16.0864Z" fill="#F5F5F5"/>
<path d="M18.5974 1.66358V13.6535L37.4784 24.9457C37.9019 25.2007 38.2524 25.5608 38.4958 25.9911C38.7393 26.4213 38.8674 26.9072 38.8679 27.4015V47.8649L43.5244 45.1425C43.6584 45.0644 43.7697 44.9527 43.8473 44.8184C43.9249 44.6841 43.9661 44.5319 43.9668 44.3768L44.0688 15.6272C44.0683 15.0063 43.9052 14.3963 43.5957 13.858C43.2863 13.3197 42.8413 12.8718 42.305 12.5588L21.11 0.205967C20.8536 0.0668765 20.5658 -0.00398888 20.2742 0.000173321C19.9826 0.00433552 19.6969 0.0833856 19.4447 0.229736C19.1924 0.376086 18.982 0.584822 18.8336 0.83591C18.6852 1.087 18.6039 1.37201 18.5974 1.66358Z" fill="#F5F5F5"/>
<path d="M204.35 42.545C202.937 42.545 201.67 42.3983 200.55 42.105C199.457 41.8116 198.524 41.3716 197.75 40.7849C196.977 40.1983 196.39 39.4783 195.99 38.6249C195.59 37.7449 195.404 36.745 195.43 35.625L198.59 34.985C198.537 35.9983 198.737 36.8516 199.19 37.545C199.67 38.2116 200.364 38.7183 201.27 39.065C202.177 39.4116 203.257 39.585 204.51 39.585C206.11 39.585 207.337 39.3183 208.19 38.7849C209.07 38.2516 209.51 37.5183 209.51 36.585C209.51 35.8383 209.27 35.265 208.79 34.865C208.31 34.4383 207.644 34.105 206.79 33.865C205.937 33.625 204.95 33.3983 203.83 33.185C202.844 32.9716 201.857 32.7316 200.87 32.465C199.91 32.1983 199.044 31.8516 198.27 31.425C197.497 30.9716 196.87 30.3983 196.39 29.7049C195.937 28.985 195.71 28.0783 195.71 26.985C195.71 25.7316 196.03 24.6516 196.67 23.745C197.337 22.8116 198.284 22.0916 199.51 21.5849C200.737 21.0783 202.204 20.825 203.91 20.825C205.537 20.825 206.964 21.0783 208.19 21.5849C209.417 22.0916 210.377 22.8383 211.07 23.825C211.79 24.8116 212.177 26.0116 212.23 27.425L209.03 28.145C209.03 27.1583 208.804 26.345 208.35 25.7049C207.924 25.065 207.31 24.585 206.51 24.2649C205.71 23.9449 204.79 23.785 203.75 23.785C202.337 23.785 201.217 24.0516 200.39 24.585C199.59 25.1183 199.19 25.8516 199.19 26.785C199.19 27.5316 199.43 28.1183 199.91 28.545C200.417 28.9716 201.097 29.305 201.95 29.545C202.804 29.7583 203.764 29.985 204.83 30.2249C205.844 30.4116 206.83 30.6383 207.79 30.905C208.75 31.145 209.617 31.4916 210.39 31.945C211.19 32.3716 211.817 32.945 212.27 33.665C212.724 34.385 212.95 35.305 212.95 36.425C212.95 37.7316 212.59 38.8516 211.87 39.7849C211.177 40.6916 210.19 41.385 208.91 41.865C207.63 42.3183 206.11 42.545 204.35 42.545Z" fill="#F5F5F5"/>
<path d="M188.891 42.4249C186.997 42.4249 185.571 41.9049 184.611 40.8649C183.677 39.8249 183.211 38.2516 183.211 36.1449V24.3849H180.251L180.291 21.4649H181.971C182.691 21.4382 183.211 21.2782 183.531 20.9849C183.877 20.6649 184.091 20.1716 184.171 19.5049L184.491 16.7849H186.771V21.3449H192.531V24.4649H186.771V36.0249C186.771 37.0916 187.011 37.8649 187.491 38.3449C187.997 38.8249 188.704 39.0649 189.611 39.0649C190.091 39.0649 190.597 38.9982 191.131 38.8649C191.664 38.7316 192.171 38.4782 192.651 38.1049V41.7049C191.931 41.9716 191.264 42.1582 190.651 42.2649C190.037 42.3716 189.451 42.4249 188.891 42.4249Z" fill="#F5F5F5"/>
<path d="M169.885 42.545C168.125 42.545 166.619 42.265 165.365 41.705C164.112 41.145 163.085 40.3716 162.285 39.385C161.485 38.3983 160.885 37.2649 160.485 35.985C160.112 34.705 159.925 33.3316 159.925 31.865C159.925 30.3183 160.125 28.8783 160.525 27.545C160.952 26.2116 161.565 25.0383 162.365 24.025C163.192 23.0116 164.205 22.225 165.405 21.665C166.632 21.105 168.045 20.825 169.645 20.825C171.325 20.825 172.765 21.1316 173.965 21.745C175.192 22.3316 176.152 23.1583 176.845 24.225C177.565 25.265 177.992 26.465 178.125 27.825L174.685 28.625C174.659 27.7716 174.445 26.985 174.045 26.265C173.645 25.545 173.072 24.985 172.325 24.585C171.579 24.1583 170.672 23.9449 169.605 23.9449C168.699 23.9449 167.872 24.1183 167.125 24.465C166.405 24.8116 165.779 25.3316 165.245 26.025C164.739 26.6916 164.339 27.505 164.045 28.465C163.779 29.425 163.645 30.5316 163.645 31.785C163.645 33.4116 163.885 34.8116 164.365 35.985C164.845 37.1316 165.552 38.0116 166.485 38.6249C167.419 39.2116 168.565 39.5049 169.925 39.5049C171.072 39.5049 172.032 39.2916 172.805 38.865C173.579 38.4383 174.179 37.8516 174.605 37.1049C175.032 36.3316 175.285 35.465 175.365 34.505L178.725 35.105C178.619 36.2783 178.325 37.3316 177.845 38.265C177.392 39.1716 176.779 39.945 176.005 40.585C175.259 41.225 174.365 41.705 173.325 42.025C172.312 42.3716 171.165 42.545 169.885 42.545Z" fill="#F5F5F5"/>
<path d="M144.164 42.545C143.044 42.545 142.03 42.3449 141.124 41.9449C140.217 41.5183 139.497 40.8783 138.964 40.025C138.43 39.145 138.164 38.0516 138.164 36.745C138.164 35.6783 138.35 34.7716 138.724 34.025C139.124 33.2516 139.71 32.6116 140.484 32.105C141.257 31.5983 142.217 31.185 143.364 30.865C144.537 30.5183 145.897 30.2383 147.444 30.025C148.617 29.8383 149.524 29.6783 150.164 29.545C150.83 29.4116 151.297 29.2116 151.564 28.9449C151.83 28.6516 151.964 28.2116 151.964 27.6249C151.964 26.5316 151.59 25.6383 150.844 24.945C150.097 24.2516 149.017 23.905 147.604 23.905C146.804 23.905 146.004 24.0516 145.204 24.345C144.43 24.6116 143.75 25.065 143.164 25.7049C142.604 26.345 142.257 27.225 142.124 28.345L138.764 27.425C138.95 26.3316 139.297 25.385 139.804 24.585C140.31 23.7583 140.95 23.065 141.724 22.505C142.524 21.945 143.417 21.5316 144.404 21.2649C145.417 20.9716 146.51 20.825 147.684 20.825C149.364 20.825 150.79 21.1183 151.964 21.705C153.137 22.2916 154.03 23.1983 154.644 24.425C155.257 25.625 155.564 27.1583 155.564 29.025V33.425C155.59 34.305 155.617 35.2383 155.644 36.2249C155.67 37.2116 155.71 38.1983 155.764 39.1849C155.817 40.1716 155.87 41.1183 155.924 42.025H152.564C152.51 41.065 152.47 40.1183 152.444 39.1849C152.444 38.225 152.444 37.2383 152.444 36.2249H152.004C151.657 37.3716 151.137 38.425 150.444 39.385C149.777 40.345 148.91 41.1183 147.844 41.705C146.804 42.265 145.577 42.545 144.164 42.545ZM145.244 39.585C145.884 39.585 146.537 39.465 147.204 39.225C147.87 38.985 148.51 38.6116 149.124 38.1049C149.764 37.5983 150.324 36.9716 150.804 36.2249C151.31 35.4783 151.71 34.585 152.004 33.545V30.545L153.084 30.585C152.684 30.985 152.137 31.3049 151.444 31.5449C150.75 31.7583 149.977 31.9316 149.124 32.0649C148.27 32.1983 147.417 32.345 146.564 32.505C145.71 32.6383 144.924 32.8516 144.204 33.1449C143.484 33.4116 142.897 33.7983 142.444 34.305C142.017 34.8116 141.804 35.505 141.804 36.385C141.804 37.3983 142.11 38.185 142.724 38.745C143.364 39.305 144.204 39.585 145.244 39.585Z" fill="#F5F5F5"/>
<path d="M126.982 42.0249V27.5849H123.382V24.7049L128.622 25.0249V24.4249C127.822 24.1849 127.156 23.8382 126.622 23.3849C126.089 22.9049 125.689 22.3449 125.422 21.7049C125.182 21.0649 125.062 20.3716 125.062 19.6249C125.062 18.5316 125.302 17.5716 125.782 16.7449C126.289 15.8916 127.009 15.2249 127.942 14.7449C128.876 14.2649 129.982 14.0249 131.262 14.0249C132.276 14.0249 133.196 14.1716 134.022 14.4649C134.876 14.7582 135.582 15.1716 136.142 15.7049L135.702 19.1849C135.116 18.6249 134.462 18.1982 133.742 17.9049C133.022 17.5849 132.316 17.4249 131.622 17.4249C130.662 17.4249 129.902 17.7182 129.342 18.3049C128.809 18.8916 128.542 19.7182 128.542 20.7849C128.542 21.4782 128.662 22.0916 128.902 22.6249C129.142 23.1316 129.462 23.5582 129.862 23.9049C130.262 24.2249 130.689 24.4382 131.142 24.5449H135.782V27.5849H130.582V42.0249H126.982Z" fill="#F5F5F5"/>
<path d="M116.042 42.0249V21.3449H119.682V42.0249H116.042ZM117.882 18.0649C117.055 18.0649 116.428 17.8916 116.002 17.5449C115.602 17.1982 115.402 16.6916 115.402 16.0249C115.402 15.3582 115.615 14.8649 116.042 14.5449C116.468 14.1982 117.082 14.0249 117.882 14.0249C118.708 14.0249 119.322 14.1982 119.722 14.5449C120.148 14.8649 120.362 15.3582 120.362 16.0249C120.362 16.6916 120.148 17.1982 119.722 17.5449C119.322 17.8916 118.708 18.0649 117.882 18.0649Z" fill="#F5F5F5"/>
<path d="M108.266 42.4249C106.372 42.4249 104.946 41.9049 103.986 40.8649C103.052 39.8249 102.586 38.2516 102.586 36.1449V24.3849H99.6257L99.6657 21.4649H101.346C102.066 21.4382 102.586 21.2782 102.906 20.9849C103.252 20.6649 103.466 20.1716 103.546 19.5049L103.866 16.7849H106.146V21.3449H111.906V24.4649H106.146V36.0249C106.146 37.0916 106.386 37.8649 106.866 38.3449C107.372 38.8249 108.079 39.0649 108.986 39.0649C109.466 39.0649 109.972 38.9982 110.506 38.8649C111.039 38.7316 111.546 38.4782 112.026 38.1049V41.7049C111.306 41.9716 110.639 42.1582 110.026 42.2649C109.412 42.3716 108.826 42.4249 108.266 42.4249Z" fill="#F5F5F5"/>
<path d="M85.4948 42.025V31.265L85.4548 21.345H88.7748L88.3748 29.305H88.9348C89.1748 27.5183 89.5481 25.9983 90.0548 24.745C90.5614 23.4917 91.2281 22.5317 92.0548 21.865C92.9081 21.1983 93.9214 20.865 95.0948 20.865C95.4148 20.865 95.7614 20.8917 96.1348 20.945C96.5081 20.9983 96.9081 21.105 97.3348 21.265L97.1348 25.105C96.7348 24.945 96.3214 24.825 95.8948 24.745C95.4948 24.665 95.1214 24.625 94.7748 24.625C93.7081 24.625 92.7881 24.985 92.0148 25.705C91.2681 26.3983 90.6548 27.385 90.1748 28.665C89.6948 29.9183 89.3481 31.3717 89.1348 33.025V42.025H85.4948Z" fill="#F5F5F5"/>
<path d="M58.0688 42.025L67.3888 15.625H72.5888L81.9088 42.025H77.9488L70.1888 18.705H69.7888L62.0288 42.025H58.0688ZM62.4688 36.145V33.305H77.9488V36.145H62.4688Z" fill="#F5F5F5"/>
<path d="M228.236 24.0249V14.0249H230.19V24.0249H228.236Z" fill="#F5F5F5"/>
<path d="M217 24.0249L220.455 14.0249H223.273L226.727 24.0249H224.636L221.97 15.5552H221.758L219.091 24.0249H217ZM218.848 21.9643V20.6158H225.151V21.9643H218.848Z" fill="#F5F5F5"/>
</svg>
